# Blender v2.79 (sub 0) OBJ File: 'untitled.blend'
# www.blender.org
mtllib testship.mtl
o Cube.001
v -0.996762 0.756202 -1.197758
v -1.002044 2.000000 0.753493
v -0.515628 0.686349 -3.339748
v -0.996762 0.756202 -1.197758
v 0.476449 0.677622 -3.465076
v 1.003232 0.756203 -1.192344
v 0.997949 2.000000 0.758907
v 1.003232 0.756203 -1.192344
v 1.003231 0.756202 -1.192344
v -1.000000 0.999999 4.000000
v -0.996761 0.756202 -1.197758
v -0.996762 0.756202 -1.197758
v 0.997949 2.000000 0.758907
v 1.003232 0.756203 -1.192344
v 1.000000 0.999999 4.000000
v -1.002044 2.000000 0.753493
vt 0.098340 0.000185
vt 0.456842 0.717190
vt 0.456842 0.000185
vt 0.912494 0.748206
vt 0.823902 0.400822
vt 0.912494 0.000185
vt 0.823531 0.098340
vt 0.465029 0.456842
vt 0.457213 0.000185
vt 0.912865 0.391458
vt 0.999815 0.739257
vt 0.999815 0.000185
vt 0.000185 0.725006
vt 0.457213 0.457213
vt 0.815715 0.457213
vt 0.815715 0.815715
vt 0.823531 0.456842
vt 0.000000 0.000000
vt 1.000000 0.000000
vt 1.000000 1.000000
vt 0.000000 1.000000
vt 0.000000 0.000000
vt 1.000000 0.000000
vt 1.000000 1.000000
vt 0.457213 0.815715
vt 0.457213 0.815715
vt 0.912494 0.748205
vt 0.999815 0.739257
vt 0.457213 0.457213
vt 0.000000 0.000000
vt 1.000000 0.000000
vt 0.000000 1.000000
vt 0.000000 0.000000
vt 1.000000 0.000000
vt 1.000000 1.000000
vt 0.000000 1.000000
vt 1.000000 1.000000
vt 0.000000 1.000000
vt 0.000000 0.000000
vt 1.000000 0.000000
vt 1.000000 1.000000
vt 0.000000 1.000000
vn -0.0001 -0.9989 0.0469
vn -0.0000 -0.9989 0.0469
vn 1.0000 0.0035 0.0005
vn -0.0005 0.9556 0.2945
vn -0.0003 0.9556 0.2947
vn 0.0000 0.9556 0.2948
vn -1.0000 -0.0035 -0.0005
vn 0.0015 0.8433 -0.5375
vn -0.0008 0.9557 0.2944
vn -0.0015 -0.8433 0.5375
vn 0.0000 0.0000 1.0000
vn 0.0006 0.9700 -0.2430
vn 0.0006 0.9701 -0.2426
vn -0.0478 -0.8667 0.4965
vn -0.0303 -0.9138 0.4051
vn -0.0670 -0.8363 0.5442
vn 0.0698 -0.8649 0.4971
vn 0.0702 -0.8649 0.4969
vn 0.0004 0.9588 0.2840
vn -0.0093 0.9532 -0.3021
vn -0.9165 0.3363 -0.2168
vn -0.0016 -0.9994 0.0336
vn 0.9086 0.3534 -0.2228
usemtl Material.001
s 1
f 9/1/1 10/2/2 11/3/1
f 9/4/3 13/5/3 15/6/3
f 13/7/4 10/8/5 15/9/6
f 16/10/7 11/11/7 10/12/7
f 9/1/1 15/13/2 10/2/2
f 12/14/8 16/15/8 13/16/8
f 13/7/4 16/17/9 10/8/5
usemtl Material.001_NONE
f 8/18/10 7/19/10 2/20/10 1/21/10
f 4/22/11 6/23/11 8/24/11 1/21/11
usemtl Material.002
f 9/25/12 12/14/13 14/26/12
f 9/4/14 14/27/15 13/5/16
f 16/10/17 12/28/18 11/11/18
f 9/25/19 11/29/19 12/14/19
usemtl Material.002_Metal
f 5/30/20 3/31/20 2/20/20 7/32/20
usemtl Material.002_NONE
f 1/33/21 2/34/21 3/35/21 4/36/21
f 4/22/22 3/31/22 5/37/22 6/38/22
f 6/39/23 5/40/23 7/41/23 8/42/23
